# xmcd CD database file
#
# Track frame offsets:
#	150
#	16509
#	25395
#
# Disc length: 617 seconds
#
# Revision: 0
# Processed by: cddbd v1.5.1PL0 Copyright (c) Steve Scherf et al.
# Submitted via: CDex 1.51
#
DISCID=14026703
DTITLE=The Spy"C" Dildog - Who
DYEAR=2003
DGENRE=Rock
TTITLE0=Who
TTITLE1=純和風スタイル
TTITLE2=月色のドレス
EXTD=YEAR: 2003
EXTT0=
EXTT1=
EXTT2=
PLAYORDER=
